 <svg xmlns="http://www.w3.org/2000/svg" width="1200" height="630" viewBox="0 0 1200 630"> <g > <g > <g > <g filter="url(#blur-filter)"> <rect x="-600" y="-315" width="2400" height="1260" fill="#9D84B7" /> <path d="M364 -138L-313 -88L-309 583L474 -32" fill="#091353"/><path d="M265 -83L226 8L840 559L866 210" fill="#B2F9FC"/><path d="M1197 140L518 357L547 1038L1399 748" fill="#B2F9FC"/><path d="M299 96L-222 676L-141 765L471 343" fill="#9D84B7"/><path d="M285 461L213 606L751 1271L1005 832" fill="#B2F9FC"/><path d="M995 413L621 890L919 1252L1548 421" fill="#9D84B7"/> </g> </g> </g> </g> <rect width="1200" height="630" fill="#fff" filter="url(#noise-filter)" /> <defs> <filter id="noise-filter" x="-480px" y="-252px" width="1680px" height="882px" filterUnits="userSpaceOnUse" primitiveUnits="userSpaceOnUse" color-interpolation-filters="linearRGB"> <feTurbulence type="fractalNoise" baseFrequency="0.13" numOctaves="4" seed="15" stitchTiles="no-stitch" x="0" y="0" width="1200px" height="630px" result="turbulence" > </feTurbulence> <feSpecularLighting surfaceScale="10" specularConstant="0.37" specularExponent="20" lighting-color="#fff" x="0" y="0" width="1200px" height="630px" in="turbulence" result="specularLighting" > <feDistantLight azimuth="3" elevation="100"></feDistantLight> </feSpecularLighting> </filter> <filter id="blur-filter" x="-120" y="-120" width="1440" height="870" filterUnits="userSpaceOnUse" color-interpolation-filters="sRGB" > <feFlood flood-opacity="0" result="BackgroundImageFix" /> <feBlend mode="normal" in="SourceGraphic" in2="BackgroundImageFix" result="shape" /> <feGaussianBlur stdDeviation="120" result="effect1_foregroundBlur_1_2" /> </filter> </defs> </svg>