 <svg xmlns="http://www.w3.org/2000/svg" width="1200" height="630" viewBox="0 0 1200 630"> <g > <g > <g > <g filter="url(#blur-filter)"> <rect x="-600" y="-315" width="2400" height="1260" fill="#CAB8FF" /> <path d="M256 -139L-241 181L449 847L697 627" fill="#B5DEFF"/><path d="M887 -210L195 395L894 603L1083 218" fill="#B5DEFF"/><path d="M620 178L572 551L1075 1052L1446 695" fill="#B5DEFF"/><path d="M-18 321L-157 853L553 1266L702 418" fill="#B5DEFF"/><path d="M394 607L225 1500L970 1510L1171 1179" fill="#CAB8FF"/><path d="M755 625L521 1042L1211 1499L1471 1093" fill="#CAB8FF"/> </g> </g> </g> </g> <rect width="1200" height="630" fill="#fff" filter="url(#noise-filter)" /> <defs> <filter id="noise-filter" x="-480px" y="-252px" width="1680px" height="882px" filterUnits="userSpaceOnUse" primitiveUnits="userSpaceOnUse" color-interpolation-filters="linearRGB"> <feTurbulence type="fractalNoise" baseFrequency="0.13" numOctaves="4" seed="15" stitchTiles="no-stitch" x="0" y="0" width="1200px" height="630px" result="turbulence" > </feTurbulence> <feSpecularLighting surfaceScale="10" specularConstant="0.37" specularExponent="20" lighting-color="#fff" x="0" y="0" width="1200px" height="630px" in="turbulence" result="specularLighting" > <feDistantLight azimuth="3" elevation="100"></feDistantLight> </feSpecularLighting> </filter> <filter id="blur-filter" x="-120" y="-120" width="1440" height="870" filterUnits="userSpaceOnUse" color-interpolation-filters="sRGB" > <feFlood flood-opacity="0" result="BackgroundImageFix" /> <feBlend mode="normal" in="SourceGraphic" in2="BackgroundImageFix" result="shape" /> <feGaussianBlur stdDeviation="120" result="effect1_foregroundBlur_1_2" /> </filter> </defs> </svg>